<svg width="39" height="55" viewBox="0 0 39 55" fill="none" xmlns="http://www.w3.org/2000/svg">
<path d="M11.9062 50.7031C12.6182 50.7031 13.1953 50.126 13.1953 49.4141C13.1953 48.7021 12.6182 48.125 11.9062 48.125C11.1943 48.125 10.6172 48.7021 10.6172 49.4141C10.6172 50.126 11.1943 50.7031 11.9062 50.7031Z" fill="#B11116"/>
<path d="M23.5078 12.4609C23.5078 8.33594 21.2734 4.46875 17.707 2.40625L17.4922 2.32031H15.9883V12.0742C13.582 13.9219 10.2305 13.9219 7.82422 12.0742V2.32031H6.32031L6.10547 2.44922C2.53906 4.46875 0.304688 8.33594 0.304688 12.4609C0.304688 12.6328 0.304688 12.8477 0.304688 13.0195C0.304688 13.1055 0.304688 13.1484 0.304688 13.2344C0.304688 13.3633 0.304688 13.4492 0.347656 13.5781C0.347656 13.6641 0.347657 13.75 0.390625 13.8359C0.390625 13.9219 0.433593 14.0508 0.433593 14.1367C0.433593 14.2227 0.476562 14.3086 0.476562 14.4375C0.476562 14.5234 0.519531 14.6094 0.519531 14.6953C0.519531 14.7812 0.5625 14.9102 0.605469 14.9961C0.605469 15.082 0.648437 15.168 0.648437 15.2539C0.691406 15.3398 0.691406 15.4688 0.734375 15.5547C0.734375 15.6406 0.777344 15.6836 0.777344 15.7695C0.820313 15.8984 0.863281 15.9844 0.863281 16.1133C0.90625 16.1562 0.90625 16.2422 0.949219 16.2852C0.992188 16.4141 1.03516 16.543 1.07812 16.6289C1.07812 16.6719 1.12109 16.7148 1.12109 16.7578C1.16406 16.8867 1.25 17.0156 1.29297 17.1445C1.29297 17.1875 1.33594 17.1875 1.33594 17.2305C1.42187 17.4023 1.46484 17.5312 1.55078 17.7031C2.15234 18.8633 2.92578 19.8945 3.87109 20.7969L4.38672 21.3555C6.01953 23.0312 7.13672 27.4141 7.13672 30.293V49.4141C7.13672 52.0352 9.24219 54.1406 11.8633 54.1406C14.4844 54.1406 16.5898 52.0352 16.5898 49.4141V30.3359C16.5898 27.457 17.707 23.0742 19.3398 21.3984L19.8555 20.8398C20.8008 19.9375 21.5742 18.9062 22.1758 17.7461C22.2617 17.6172 22.3477 17.4453 22.3906 17.2734C22.3906 17.2305 22.4336 17.2305 22.4336 17.1875C22.4766 17.0586 22.5625 16.9297 22.6055 16.8008C22.6055 16.7578 22.6484 16.7148 22.6484 16.6719C22.6914 16.543 22.7344 16.457 22.7773 16.3281C22.8203 16.2852 22.8203 16.1992 22.8633 16.1562C22.9062 16.0273 22.9492 15.9414 22.9492 15.8125C22.9922 15.7266 22.9922 15.6836 22.9922 15.5977C23.0352 15.5117 23.0352 15.3828 23.0781 15.2969C23.0781 15.2109 23.1211 15.125 23.1211 15.0391C23.1641 14.9531 23.1641 14.8242 23.207 14.7383C23.207 14.6523 23.25 14.5664 23.25 14.4805C23.25 14.3945 23.293 14.3086 23.293 14.1797C23.293 14.0937 23.3359 13.9648 23.3359 13.8789C23.3359 13.793 23.3789 13.707 23.3789 13.6211C23.3789 13.4922 23.3789 13.4062 23.4219 13.2773C23.4219 13.1914 23.4219 13.1484 23.4219 13.0625C23.5078 12.8477 23.5078 12.6328 23.5078 12.4609ZM6.10547 4.46875V12.8477L6.40625 13.1055C7.99609 14.4805 9.92969 15.168 11.9062 15.168C13.8828 15.168 15.8164 14.4805 17.4062 13.1484L17.707 12.8906V4.46875C20.2422 6.31641 21.7891 9.28125 21.7891 12.4609C21.7891 12.7617 21.7891 13.0625 21.7461 13.3633V13.4062C21.7031 13.707 21.6602 14.0078 21.6172 14.2656C21.6172 14.3086 21.6172 14.3086 21.6172 14.3516C21.5742 14.6523 21.4883 14.9102 21.4023 15.2109V15.2539C21.3164 15.5547 21.2305 15.8125 21.1016 16.1133C21.1016 16.1133 21.1016 16.1133 21.1016 16.1562C20.6289 17.3164 19.9414 18.3477 19.082 19.293L18.6953 19.6797C16.8906 21.3125 14.5273 22.3437 11.9062 22.3437C9.28516 22.3437 6.92187 21.3125 5.16016 19.6367L4.77344 19.25C3.91406 18.3477 3.22656 17.2734 2.75391 16.1133C2.75391 16.1133 2.75391 16.1133 2.75391 16.0703C2.625 15.8125 2.53906 15.5117 2.45312 15.2109V15.168C2.36719 14.9102 2.32422 14.6094 2.23828 14.3086C2.23828 14.2656 2.23828 14.2656 2.23828 14.2227C2.19531 13.9219 2.15234 13.6641 2.10938 13.3633V13.3203C2.02344 13.0625 2.02344 12.7617 2.02344 12.4609C2.02344 9.28125 3.57031 6.31641 6.10547 4.46875ZM14.9141 30.3359V49.4141C14.9141 51.0898 13.582 52.4219 11.9062 52.4219C10.2305 52.4219 8.89844 51.0898 8.89844 49.4141V30.3359C8.89844 28.4883 8.42578 25.5664 7.4375 23.1602C8.8125 23.7617 10.3164 24.0625 11.9062 24.0625C13.4961 24.0625 15 23.7617 16.375 23.1602C15.3867 25.5664 14.9141 28.5312 14.9141 30.3359Z" fill="#B11116"/>
<path d="M38.0742 30.4219L38.5469 30.1641V26.6406H34.25V6.66016C34.5078 6.53125 34.7227 6.40234 34.8945 6.1875C35.2812 5.75781 35.4531 5.19922 35.4102 4.64062L35.0234 0.859375H31.7578L31.3711 4.64062C31.3281 5.19922 31.5 5.75781 31.8867 6.1875C32.0586 6.40234 32.2734 6.53125 32.5312 6.66016V26.6406H28.2344V30.1641L28.707 30.4219C29.2227 30.6797 29.5664 31.1953 29.5664 31.7969C29.5664 32.3984 29.2656 32.9141 28.707 33.1719L28.2344 33.4297V48.9844C28.2344 51.8203 30.5547 54.1406 33.3906 54.1406C36.2266 54.1406 38.5469 51.8203 38.5469 48.9844V33.4297L38.0742 33.1719C37.5586 32.9141 37.2148 32.3984 37.2148 31.7969C37.2148 31.1953 37.5586 30.6797 38.0742 30.4219ZM33.3047 2.57812H33.4766L33.6914 4.8125C33.6914 4.94141 33.6484 5.02734 33.6055 5.07031C33.5625 5.11328 33.5195 5.15625 33.3906 5.15625C33.2617 5.15625 33.1758 5.11328 33.1758 5.07031C33.1758 5.02734 33.0898 4.94141 33.0898 4.8125L33.3047 2.57812ZM29.9531 29.1758V28.3594H36.8281V29.1758C36.0117 29.7773 35.4961 30.7656 35.4961 31.7969C35.4961 32.8711 36.0117 33.8164 36.8281 34.418V48.125H29.9531V34.418C30.7695 33.8164 31.2852 32.8281 31.2852 31.7969C31.2852 30.7227 30.7695 29.7773 29.9531 29.1758ZM33.3906 52.4219C31.8008 52.4219 30.4688 51.3047 30.082 49.8438H36.7422C36.3125 51.3047 34.9805 52.4219 33.3906 52.4219Z" fill="#B11116"/>
</svg>
