<svg width="81" height="39" viewBox="0 0 81 39" fill="none" xmlns="http://www.w3.org/2000/svg">
<path d="M56.3908 32.5543H29.8999C29.2603 32.5543 28.7412 32.0352 28.7412 31.3955C28.7412 30.7559 29.2603 30.2368 29.8999 30.2368H56.3908C57.0305 30.2368 57.5496 30.7559 57.5496 31.3955C57.5496 32.0352 57.0305 32.5543 56.3908 32.5543Z" fill="#B11116"/>
<path d="M23.5987 38.8578C19.4829 38.8578 16.1342 35.5114 16.1342 31.3933C16.1342 27.2751 19.4806 23.9287 23.5987 23.9287C27.7122 23.9287 31.0609 27.2751 31.0609 31.3933C31.0609 35.5114 27.7122 38.8578 23.5987 38.8578ZM23.5987 26.2485C20.7598 26.2485 18.4516 28.5567 18.4516 31.3956C18.4516 34.2345 20.7598 36.5427 23.5987 36.5427C26.4353 36.5427 28.7435 34.2345 28.7435 31.3956C28.7435 28.5567 26.433 26.2485 23.5987 26.2485Z" fill="#B11116"/>
<path d="M62.6967 38.8578C58.5809 38.8578 55.2321 35.5114 55.2321 31.3933C55.2321 27.2751 58.5785 23.9287 62.6967 23.9287C66.8148 23.9287 70.1612 27.2751 70.1612 31.3933C70.1612 35.5114 66.8125 38.8578 62.6967 38.8578ZM62.6967 26.2485C59.8578 26.2485 57.5496 28.5567 57.5496 31.3956C57.5496 34.2345 59.8578 36.5427 62.6967 36.5427C65.5356 36.5427 67.8438 34.2345 67.8438 31.3956C67.8438 28.5567 65.5332 26.2485 62.6967 26.2485Z" fill="#B11116"/>
<path d="M56.4001 32.5543H29.9046C29.2649 32.5543 28.7458 32.0352 28.7458 31.3955C28.7458 30.7559 29.2649 30.2368 29.9046 30.2368H56.4001C57.0397 30.2368 57.5589 30.7559 57.5589 31.3955C57.5589 32.0352 57.0397 32.5543 56.4001 32.5543Z" fill="#B11116"/>
<path d="M74.5644 32.5543H68.9956C68.356 32.5543 67.8368 32.0351 67.8368 31.3955C67.8368 30.7559 68.356 30.2368 68.9956 30.2368H74.5644C75.9989 30.2368 77.2017 29.2078 77.4219 27.7896L78.6571 19.8801C78.7428 19.3262 78.6061 18.7746 78.2654 18.3273C77.9271 17.8824 77.4381 17.5997 76.8796 17.5301L61.443 15.6484C61.2205 15.6206 61.0096 15.5302 60.8381 15.3865L46.8846 3.6578C45.9646 2.88377 44.7943 2.45736 43.5892 2.45736H21.761C20.6834 2.45736 19.6938 2.99964 19.1121 3.90809L12.5885 14.1165C12.4425 14.3506 12.213 14.5221 11.9488 14.6009L4.06946 16.9763C2.89914 17.3285 2.16219 18.5035 2.3499 19.7132L3.45301 26.7791C3.76587 28.7791 5.46226 30.2322 7.48772 30.2322H17.2883C17.9279 30.2322 18.447 30.7513 18.447 31.3909C18.447 32.0305 17.9279 32.5496 17.2883 32.5496H7.48309C4.30816 32.5496 1.64539 30.2739 1.15872 27.136L0.0556094 20.0701C-0.308233 17.7248 1.12628 15.4421 3.39508 14.7585L10.8666 12.5059L17.1608 2.65666C18.1689 1.0831 19.8885 0.142212 21.761 0.142212H43.5938C45.3412 0.142212 47.0399 0.760974 48.3771 1.88494L62.0664 13.3912L77.1623 15.2312C78.3489 15.3772 79.3964 15.9774 80.1148 16.9299C80.8355 17.8801 81.1298 19.055 80.9467 20.2369L79.7115 28.1464C79.3152 30.7003 77.1484 32.5543 74.5644 32.5543Z" fill="#B11116"/>
<path d="M49.0375 16.5522H22.4609C21.8212 16.5522 21.3021 16.0331 21.3021 15.3935C21.3021 14.7539 21.8212 14.2347 22.4609 14.2347H49.0375C49.6772 14.2347 50.1963 14.7539 50.1963 15.3935C50.1963 16.0331 49.6772 16.5522 49.0375 16.5522Z" fill="#B11116"/>
</svg>
