<svg width="45" height="54" viewBox="0 0 45 54" fill="none" xmlns="http://www.w3.org/2000/svg">
<g clip-path="url(#clip0_99_34)">
<path d="M26.7187 47.6719C26.1365 47.6719 25.664 48.1443 25.664 48.7265C25.664 49.3087 26.1365 49.7812 26.7187 49.7812C27.301 49.7812 27.7735 49.3087 27.7735 48.7265C27.7735 48.1443 27.301 47.6719 26.7187 47.6719Z" fill="#B11116"/>
<path d="M41.4844 4.85156H38.3203V3.16406C38.3203 1.4194 36.9009 0 35.1562 0H9.84375C8.09908 0 6.67969 1.4194 6.67969 3.16406V4.85156H3.51562C1.77096 4.85156 0.351562 6.27096 0.351562 8.01562C0.351562 14.8771 3.56225 19.9196 8.77092 21.3234C10.5566 25.2537 13.3797 28.5949 16.9631 31.0091C17.7885 31.5653 18.2812 32.5174 18.2812 33.556V39.3672C17.5583 39.5526 16.895 39.9285 16.3532 40.4704C15.5561 41.2675 15.1172 42.3267 15.1172 43.4531H14.0625C12.3179 43.4531 10.8985 44.8726 10.8985 46.6172V52.9453C10.8985 53.5279 11.3707 54 11.9531 54H33.0469C33.6293 54 34.1015 53.5279 34.1015 52.9453V46.6172C34.1015 44.8726 32.6821 43.4531 30.9375 43.4531H29.8828C29.8828 41.491 28.5363 39.8373 26.7188 39.3679V33.5612C26.7188 32.5192 27.2119 31.5654 28.038 31.0093C31.6217 28.5948 34.4449 25.2535 36.2303 21.3232C41.4383 19.9187 44.6485 14.8765 44.6485 8.01562C44.6485 6.27096 43.2291 4.85156 41.4844 4.85156ZM2.46094 8.01562C2.46094 7.43407 2.93407 6.96094 3.51562 6.96094H6.67969V11.6754C6.67969 14.0795 7.04387 16.4338 7.76285 18.7011C4.40652 17.0386 2.46094 13.1989 2.46094 8.01562ZM30.9375 45.5625C31.5191 45.5625 31.9922 46.0356 31.9922 46.6172V51.8906H13.0078V46.6172C13.0078 46.0356 13.4809 45.5625 14.0625 45.5625H30.9375ZM36.211 11.6754C36.211 14.5563 35.6374 17.3597 34.5059 20.0074C32.8964 23.7745 30.2524 26.9738 26.8597 29.2596C25.4506 30.2081 24.6094 31.8163 24.6094 33.5612V40.289C24.6094 40.8716 25.0816 41.3438 25.664 41.3438C26.8272 41.3438 27.7735 42.29 27.7735 43.4531H17.2265C17.2265 42.8901 17.4461 42.3606 17.8447 41.9619C18.2237 41.5829 18.7213 41.3658 19.2533 41.3454C19.2806 41.3474 19.3081 41.3485 19.3359 41.3485C19.9183 41.3485 20.3905 40.8716 20.3905 40.289V33.556C20.3905 31.8146 19.5498 30.2087 18.1417 29.2599C14.7487 26.974 12.1045 23.7746 10.4949 20.0072C9.36306 17.3605 8.78906 14.5572 8.78906 11.6754V3.16406C8.78906 2.5825 9.26217 2.10938 9.84375 2.10938H35.1562C35.7378 2.10938 36.211 2.5825 36.211 3.16406V11.6754ZM37.2376 18.7008C37.9562 16.4331 38.3203 14.0789 38.3203 11.6754V6.96094H41.4844C42.0659 6.96094 42.539 7.43407 42.539 8.01562C42.539 13.1987 40.5937 17.0382 37.2376 18.7008Z" fill="#B11116"/>
<path d="M30.8467 12.4623C30.7228 12.0803 30.3926 11.802 29.9953 11.7444L25.4436 11.0837L23.4077 6.95835C23.2301 6.59829 22.8634 6.37036 22.4619 6.37036C22.0604 6.37036 21.6938 6.59829 21.5161 6.95835L19.4802 11.0837L14.9288 11.7444C14.5313 11.8021 14.2013 12.0805 14.0772 12.4623C13.9532 12.8441 14.0566 13.2633 14.3441 13.5435L17.6383 16.754L16.8608 21.2878C16.793 21.6835 16.9556 22.0834 17.2805 22.3193C17.6053 22.5553 18.0359 22.5864 18.3911 22.3996L22.462 20.2593L26.5339 22.3996C26.8914 22.5875 27.3218 22.5538 27.6446 22.3192C27.9693 22.0832 28.1319 21.6833 28.064 21.2876L27.2857 16.7539L30.5798 13.5435C30.8674 13.2633 30.9707 12.8441 30.8467 12.4623ZM25.4162 15.6304C25.1676 15.8726 25.054 16.2219 25.1129 16.5641L25.6235 19.5381L22.9527 18.1342C22.6453 17.9727 22.2782 17.9727 21.9712 18.1342L19.3012 19.5381L19.8113 16.5639C19.8699 16.2217 19.7564 15.8725 19.5079 15.6304L17.3474 13.5247L20.3323 13.0915C20.6759 13.0416 20.9729 12.8258 21.1266 12.5145L22.462 9.80825L23.7974 12.5145C23.9512 12.8258 24.2482 13.0416 24.5918 13.0915L27.5767 13.5247L25.4162 15.6304Z" fill="#B11116"/>
<path d="M22.5 47.6719H18.2812C17.6989 47.6719 17.2265 48.144 17.2265 48.7265C17.2265 49.3091 17.6989 49.7812 18.2812 49.7812H22.5C23.0824 49.7812 23.5547 49.3091 23.5547 48.7265C23.5547 48.144 23.0824 47.6719 22.5 47.6719Z" fill="#B11116"/>
<path d="M38.7432 50.8359H39.3313C39.0317 50.7766 38.8302 50.7707 38.7432 50.8359Z" fill="#B11116"/>
</g>
<defs>
<clipPath id="clip0_99_34">
<rect width="45" height="54" fill="white"/>
</clipPath>
</defs>
</svg>
