<svg width="65" height="65" viewBox="0 0 65 65" fill="none" xmlns="http://www.w3.org/2000/svg">
<path d="M63.7024 1.64259C63.0066 0.81746 61.9457 0.432211 60.6807 0.642086C60.4594 0.679461 55.2384 1.55059 51.3456 3.52859L50.1841 4.12084C49.7011 4.40834 49.3532 4.83096 49.083 5.30821C48.7581 5.17884 48.3844 5.17884 48.0624 5.37721C40.0871 10.2503 35.4354 15.158 35.2456 15.365C34.1244 16.5552 32.4827 18.6511 31.5829 20.034L30.499 21.7043L20.3876 21.1782C18.5361 21.0632 15.9544 22.0493 14.6089 23.392L1.68287 36.2605C1.0935 36.8441 0.110247 37.8245 0.866372 38.7732C1.62825 39.7335 2.79837 38.986 3.49987 38.5461L5.866 37.0568C7.09937 36.2777 9.33325 35.3548 10.8915 35.0041C12.0616 34.7396 13.824 35.2485 14.6664 36.0908L18.4412 39.8513L17.2826 41.585C16.7881 42.3296 15.2644 44.8538 16.4862 46.093L18.6914 48.3153C19.0335 48.6575 19.4734 48.7897 19.9506 48.7897C21.1897 48.7897 22.6617 47.9013 23.1994 47.5448L24.9186 46.4092L28.866 50.3451C29.7084 51.1846 30.2115 52.9383 29.901 54.2493C29.5704 55.6638 28.6331 57.8977 27.854 59.1196L26.3417 61.4972C25.8961 62.1958 25.1515 63.366 26.1002 64.1278C26.3475 64.3262 26.5947 64.4067 26.8391 64.4067C27.532 64.4067 28.1817 63.757 28.6159 63.3257L41.5419 50.4515C42.8845 49.1117 43.8706 46.576 43.7872 44.6842L43.3215 34.2048L44.69 33.2791C46.0441 32.3648 48.1285 30.7405 49.3389 29.6623C49.5516 29.4755 54.5944 24.9445 59.5279 16.9663C59.7205 16.6558 59.7291 16.2965 59.6141 15.9773C60.1 15.6956 60.5169 15.296 60.8245 14.7756L61.388 13.6831C63.4005 9.78458 64.3148 4.54634 64.3521 4.32496C64.5275 3.30721 64.2975 2.34984 63.7024 1.64259ZM16.2879 34.4607C14.8935 33.0721 12.3031 32.3332 10.236 32.7903C9.44825 32.9715 8.488 33.2877 7.53925 33.673L16.2275 25.0192C17.1216 24.1308 19.045 23.3977 20.2669 23.4725L29.05 23.9325L28.6619 24.5305V24.5333L19.7436 37.8963L16.2879 34.4607ZM41.4872 44.7935C41.5419 46.0527 40.8087 47.9416 39.9146 48.83L31.2321 57.478C31.6317 56.5033 31.9681 55.4971 32.1751 54.6288C32.6236 52.7083 31.8819 50.1151 30.4875 48.7207L26.8765 45.1183L40.8346 35.9068C40.8461 35.8982 40.8519 35.8838 40.8662 35.8752L41.0847 35.7257L41.4872 44.7935ZM47.8094 27.9546C46.6623 28.9752 44.6842 30.5162 43.402 31.3845L39.147 34.2681L39.1441 34.271L21.9344 45.6272C21.138 46.1533 20.4422 46.4063 20.103 46.4725L18.3435 44.6957C18.4096 44.3565 18.6684 43.6607 19.2002 42.8586L30.5852 25.7926L30.5881 25.7868L30.5939 25.7811L33.5091 21.2875C34.3314 20.0225 35.8925 18.033 36.9189 16.9433C36.962 16.8916 41.3492 12.3002 48.6747 7.71459C48.784 8.29246 49.0111 8.86171 49.3705 9.37346C49.4136 9.43384 50.4486 10.9001 52.2426 12.7171C54.0366 14.537 55.4856 15.5835 55.546 15.6295C56.0606 16.0003 56.6356 16.1987 57.2221 16.308C52.5819 23.6335 47.8554 27.9086 47.8094 27.9546ZM62.0866 3.94834C62.078 4.00009 61.1925 9.05721 59.3439 12.6366L58.812 13.6687C58.5762 14.0655 58.1594 14.123 57.9323 14.123C57.5844 14.123 57.2135 13.9936 56.8857 13.7578C56.8714 13.7463 55.523 12.7688 53.8756 11.0956C52.2282 9.42809 51.2594 8.05959 51.2507 8.04809C50.9517 7.62259 50.831 7.13671 50.923 6.71696C50.9834 6.43521 51.1271 6.22821 51.291 6.13046L52.3864 5.57271C55.9571 3.76146 61.0028 2.91334 61.3161 2.88171C61.5088 2.88171 61.7761 2.92484 61.94 3.11746C62.0952 3.30434 62.147 3.59471 62.0866 3.94834Z" fill="#B11116"/>
</svg>
