<svg width="17" height="17" viewBox="0 0 17 17" fill="none" xmlns="http://www.w3.org/2000/svg">
<g clip-path="url(#clip0_4_61)">
<path fill-rule="evenodd" clip-rule="evenodd" d="M15.5834 4.95834C15.5834 3.00263 13.9974 1.41667 12.0417 1.41667C9.87844 1.41667 7.1216 1.41667 4.95835 1.41667C3.00265 1.41667 1.41669 3.00263 1.41669 4.95834C1.41669 7.12159 1.41669 9.87842 1.41669 12.0417C1.41669 13.9974 3.00265 15.5833 4.95835 15.5833C7.1216 15.5833 9.87844 15.5833 12.0417 15.5833C13.9974 15.5833 15.5834 13.9974 15.5834 12.0417C15.5834 9.87842 15.5834 7.12159 15.5834 4.95834Z" fill="url(#paint0_radial_4_61)"/>
<path d="M10.5953 3.54521C12.0764 3.55937 13.4399 4.83083 13.4548 6.40475C13.4598 7.80158 13.4598 9.19842 13.4548 10.5952C13.4406 12.0707 12.1692 13.4399 10.5953 13.4548C9.19843 13.4598 7.8016 13.4598 6.40476 13.4548C4.92293 13.4406 3.5601 12.1692 3.54522 10.5952C3.54026 9.19842 3.54026 7.80158 3.54522 6.40475C3.55868 4.92221 4.82731 3.56008 6.40476 3.54521C7.8016 3.54025 9.19843 3.54025 10.5953 3.54521ZM6.42389 4.21458C5.27426 4.21812 4.22593 5.21475 4.2146 6.409C4.21035 7.803 4.21035 9.197 4.2146 10.591C4.22522 11.7279 5.19776 12.7741 6.40901 12.7854C7.80301 12.7897 9.19701 12.7897 10.591 12.7854C11.7307 12.7748 12.7741 11.8022 12.7854 10.591C12.7897 9.197 12.7897 7.803 12.7854 6.409C12.7748 5.26433 11.7831 4.22592 10.591 4.21458C9.20197 4.21033 7.81293 4.21458 6.42389 4.21458Z" fill="white"/>
<path d="M8.51698 6.02083C9.66306 6.03145 10.7312 6.91545 10.9409 8.04808C11.0904 8.85558 10.8084 9.73108 10.2134 10.2992C9.55114 10.9296 8.52619 11.1548 7.64785 10.8332C6.6661 10.4741 5.97548 9.43924 6.02152 8.39091C6.07748 7.13858 7.18389 6.02508 8.49998 6.02083C8.50564 6.02083 8.51131 6.02083 8.51698 6.02083ZM8.48864 6.69162C7.67052 6.69941 6.89914 7.31991 6.72914 8.12599C6.55702 8.94129 7.02594 9.84583 7.79589 10.171C8.63669 10.5265 9.72256 10.1277 10.1284 9.29758C10.5485 8.43979 10.1525 7.27458 9.26569 6.8602C9.02415 6.74758 8.75569 6.69091 8.48864 6.69162Z" fill="white"/>
<path fill-rule="evenodd" clip-rule="evenodd" d="M11.6875 5.82746C11.6875 5.69075 11.633 5.55971 11.5366 5.46337C11.4403 5.36704 11.3092 5.3125 11.1725 5.3125C11.1619 5.3125 11.1506 5.3125 11.14 5.3125C11.0033 5.3125 10.8722 5.36704 10.7759 5.46337C10.6795 5.55971 10.625 5.69075 10.625 5.82746C10.625 5.83313 10.625 5.83808 10.625 5.84375C10.625 5.98471 10.681 6.12 10.7808 6.21917C10.88 6.31904 11.0153 6.375 11.1562 6.375C11.4495 6.375 11.6875 6.137 11.6875 5.84375C11.6875 5.83808 11.6875 5.83313 11.6875 5.82746Z" fill="white"/>
</g>
<defs>
<radialGradient id="paint0_radial_4_61" cx="0" cy="0" r="1" gradientUnits="userSpaceOnUse" gradientTransform="translate(1.41669 15.2292) scale(19.7859)">
<stop stop-color="#FF8100"/>
<stop offset="0.19" stop-color="#FF7209"/>
<stop offset="0.32" stop-color="#F55E16"/>
<stop offset="0.48" stop-color="#D92938"/>
<stop offset="1" stop-color="#9100FF"/>
</radialGradient>
<clipPath id="clip0_4_61">
<rect width="17" height="17" fill="white"/>
</clipPath>
</defs>
</svg>
