<svg width="53" height="53" viewBox="0 0 53 53" fill="none" xmlns="http://www.w3.org/2000/svg">
<path d="M50.456 38.0009L44.043 31.5349C42.983 30.4749 41.552 29.8389 40.227 29.8389C38.796 29.8389 37.524 30.4219 36.411 31.5349L32.701 35.2449C32.542 35.1389 32.33 35.0329 32.171 34.9799C32.171 34.9799 32.118 34.9799 32.118 34.9269L32.065 34.8739C31.588 34.5559 31.058 34.2379 30.422 33.9729C27.189 31.9589 24.168 29.1499 21.094 25.3869C19.663 23.5849 18.656 21.9949 17.861 20.2459C18.709 19.5569 19.345 18.8679 19.822 18.3379L21.465 16.6949C22.737 15.5289 23.373 14.2039 23.373 12.8259C23.373 11.3949 22.737 10.0699 21.518 8.79794L16.483 3.76294C16.006 3.28594 15.529 2.80894 14.999 2.33194C13.939 1.32494 12.614 0.741943 11.236 0.741943C9.699 0.741943 8.427 1.27194 7.261 2.43794L3.392 6.30694C1.855 7.73794 0.953997 9.53994 0.741997 11.7659V11.8189C0.635997 14.5749 1.05999 17.1189 2.22599 20.2989C4.08099 25.2809 6.89 29.9449 11.077 35.0859C16.536 41.2339 22.684 46.0039 29.521 49.2899L29.68 49.3429C31.694 50.2439 35.51 51.9399 39.75 52.2049H40.333C43.142 52.2049 45.262 51.3039 47.011 49.3959C47.647 48.6539 48.336 47.9649 48.919 47.3289C49.396 46.9579 49.714 46.5869 50.032 46.2159L50.456 45.7919L50.562 45.6859C52.788 43.2479 52.788 40.2799 50.456 38.0009ZM48.601 43.8839L48.071 44.4139L48.018 44.5199C47.753 44.8379 47.541 45.1029 47.276 45.3149L47.117 45.4739C46.481 46.1099 45.739 46.8519 44.997 47.6999C43.778 49.0249 42.4 49.6079 40.333 49.6079H39.909C36.199 49.3429 32.807 47.8589 30.793 46.9579L30.687 46.9049C24.168 43.7779 18.285 39.2199 13.144 33.3899C9.116 28.5139 6.466 24.0619 4.717 19.3979C3.657 16.4829 3.286 14.3629 3.392 11.9779C3.551 10.4409 4.134 9.22194 5.194 8.26794L9.116 4.34594C9.752 3.70994 10.388 3.44494 11.183 3.44494C11.872 3.44494 12.508 3.76294 13.091 4.29294L13.144 4.34594C13.621 4.76994 14.098 5.24694 14.575 5.72394L19.61 10.7589C20.564 11.7129 20.723 12.4549 20.723 12.8789C20.723 13.3029 20.617 13.9389 19.61 14.8399L17.914 16.5359C17.331 17.1719 16.642 17.8609 15.741 18.6029L15.635 18.7089L15.529 18.8679C15.052 19.5039 14.999 20.0869 15.264 20.9349L15.317 21.1469L15.37 21.3589C16.271 23.3199 17.384 25.1219 18.974 27.1359C22.26 31.1639 25.546 34.1849 29.044 36.3579L29.203 36.4639C29.627 36.6759 30.051 36.8879 30.422 37.0999C30.581 37.2589 30.793 37.3649 30.952 37.4179C31.164 37.5239 31.323 37.5769 31.429 37.6829L31.8 37.9479H31.906L32.065 38.0009C32.383 38.1069 32.595 38.1069 32.754 38.1069C33.284 38.1069 33.761 37.8949 34.238 37.4179L38.213 33.4429C38.849 32.8069 39.432 32.5419 40.174 32.5419C40.969 32.5419 41.711 33.0189 42.135 33.4429L48.601 39.9089C49.873 41.1809 49.926 42.5059 48.601 43.8839Z" fill="#B11116"/>
</svg>
