<svg width="72" height="72" viewBox="0 0 72 72" fill="none" xmlns="http://www.w3.org/2000/svg">
<path d="M64.9294 7.5657H53.8116L40.1048 3.09382C39.2817 2.8245 38.409 2.74206 37.55 2.8525C36.6911 2.96294 35.8675 3.26348 35.1394 3.73226L26.8805 9.03804C26.7914 9.09519 26.7144 9.16934 26.6539 9.25625C26.5935 9.34315 26.5507 9.44111 26.5282 9.54453C26.5056 9.64795 26.5036 9.75481 26.5223 9.859C26.541 9.9632 26.58 10.0627 26.6372 10.1518C26.6943 10.2409 26.7685 10.3179 26.8554 10.3783C26.9423 10.4388 27.0402 10.4815 27.1437 10.5041C27.2471 10.5267 27.3539 10.5287 27.4581 10.51C27.5623 10.4913 27.6618 10.4522 27.7509 10.3951L36.0098 5.09632C36.5373 4.7576 37.1337 4.54092 37.7555 4.4621C38.3774 4.38327 39.009 4.44429 39.6042 4.6407L53.4375 9.1407C53.5178 9.1671 53.6018 9.18039 53.6864 9.18007H64.125V22.7237H58.1273C57.9795 22.7238 57.8347 22.7646 57.7084 22.8415C57.5822 22.9183 57.4795 23.0284 57.4116 23.1596C56.5082 24.6877 55.1284 25.8773 53.4839 26.5459V22.9219C54.7762 22.3707 56.1558 21.4116 57.0361 19.7396C57.0857 19.6458 57.1163 19.5431 57.1262 19.4375C57.1361 19.3318 57.1251 19.2253 57.0938 19.1239C57.0626 19.0225 57.0116 18.9282 56.9439 18.8465C56.8762 18.7648 56.7931 18.6972 56.6993 18.6476C56.6055 18.5981 56.5028 18.5674 56.3972 18.5575C56.2915 18.5476 56.185 18.5586 56.0836 18.5899C55.9822 18.6212 55.8879 18.6721 55.8062 18.7398C55.7245 18.8075 55.6569 18.8906 55.6073 18.9844C54.0745 21.9151 50.2636 22.0459 50.2425 22.0459C45.1378 22.0459 43.6641 18.4824 43.605 18.3348C43.5465 18.1826 43.4433 18.0518 43.309 17.9594C43.1747 17.867 43.0156 17.8175 42.8526 17.8173H35.2772C34.9899 17.8246 34.7041 17.7744 34.4365 17.6695C34.169 17.5646 33.9251 17.4073 33.7194 17.2067C33.5136 17.0061 33.35 16.7664 33.2384 16.5016C33.1267 16.2368 33.0692 15.9524 33.0692 15.665C33.0692 15.3776 33.1267 15.0932 33.2384 14.8284C33.35 14.5636 33.5136 14.3239 33.7194 14.1233C33.9251 13.9227 34.169 13.7653 34.4365 13.6605C34.7041 13.5556 34.9899 13.5054 35.2772 13.5127H44.3194C44.4281 13.5173 44.5366 13.4998 44.6385 13.4613C44.7403 13.4228 44.8332 13.3641 44.9118 13.2888C44.9903 13.2135 45.0528 13.123 45.0955 13.0229C45.1382 12.9228 45.1602 12.8151 45.1602 12.7062C45.1602 12.5974 45.1382 12.4897 45.0955 12.3896C45.0528 12.2895 44.9903 12.199 44.9118 12.1237C44.8332 12.0484 44.7403 11.9897 44.6385 11.9512C44.5366 11.9127 44.4281 11.8952 44.3194 11.8998H35.2772C34.7766 11.8901 34.2791 11.9803 33.8138 12.1652C33.3485 12.3501 32.9248 12.6259 32.5673 12.9765C32.2099 13.3271 31.926 13.7454 31.7321 14.207C31.5383 14.6687 31.4385 15.1643 31.4385 15.665C31.4385 16.1657 31.5383 16.6613 31.7321 17.1229C31.926 17.5846 32.2099 18.0029 32.5673 18.3535C32.9248 18.7041 33.3485 18.9799 33.8138 19.1648C34.2791 19.3497 34.7766 19.4399 35.2772 19.4302H42.3478C43.0214 20.6663 45.1786 23.6588 50.2594 23.6588C50.8024 23.6348 51.3419 23.5599 51.8709 23.4352V35.3884C51.8706 35.7038 51.7451 36.0061 51.5221 36.2292C51.299 36.4522 50.9966 36.5777 50.6812 36.578H9.06608C8.75103 36.5777 8.44892 36.4526 8.22575 36.2303C8.00258 36.0079 7.87648 35.7062 7.87499 35.3912V14.7024C7.87536 14.387 8.00082 14.0846 8.22385 13.8616C8.44688 13.6386 8.74927 13.5131 9.06468 13.5127H29.6283C29.737 13.5173 29.8456 13.4998 29.9474 13.4613C30.0492 13.4228 30.1421 13.3641 30.2207 13.2888C30.2992 13.2135 30.3617 13.123 30.4044 13.0229C30.4471 12.9228 30.4691 12.8151 30.4691 12.7062C30.4691 12.5974 30.4471 12.4897 30.4044 12.3896C30.3617 12.2895 30.2992 12.199 30.2207 12.1237C30.1421 12.0484 30.0492 11.9897 29.9474 11.9512C29.8456 11.9127 29.737 11.8952 29.6283 11.8998H9.06608C8.32357 11.9024 7.61221 12.1985 7.08717 12.7235C6.56213 13.2485 6.26602 13.9599 6.26343 14.7024V35.3912C6.26602 36.1337 6.56213 36.845 7.08717 37.3701C7.61221 37.8951 8.32357 38.1912 9.06608 38.1938H50.6812C51.4238 38.1912 52.1351 37.8951 52.6601 37.3701C53.1852 36.845 53.4813 36.1337 53.4839 35.3912V28.2544C56.3751 27.3334 57.9937 25.2479 58.5844 24.3352H64.9294C65.1432 24.3352 65.3483 24.2504 65.4996 24.0993C65.651 23.9482 65.7362 23.7433 65.7365 23.5294V8.37288C65.7365 8.1588 65.6515 7.95349 65.5001 7.80212C65.3488 7.65074 65.1434 7.5657 64.9294 7.5657Z" fill="#B11116"/>
<path d="M11.7323 29.2964V20.7956C12.5808 20.6326 13.3608 20.2189 13.9717 19.608C14.5826 18.9971 14.9963 18.217 15.1594 17.3686H28.9308C29.1388 17.3599 29.3355 17.2711 29.4797 17.1208C29.6238 16.9705 29.7043 16.7703 29.7043 16.5621C29.7043 16.3539 29.6238 16.1537 29.4797 16.0034C29.3355 15.8531 29.1388 15.7643 28.9308 15.7556H14.4295C14.2155 15.7556 14.0101 15.8407 13.8588 15.992C13.7074 16.1434 13.6223 16.3487 13.6223 16.5628C13.6229 16.9173 13.5536 17.2684 13.4184 17.5962C13.2832 17.9239 13.0848 18.2217 12.8344 18.4727C12.5841 18.7237 12.2867 18.9229 11.9594 19.059C11.632 19.195 11.2811 19.2652 10.9266 19.2656C10.7147 19.2671 10.5119 19.3518 10.3619 19.5015C10.2119 19.6512 10.1268 19.8539 10.125 20.0658V30.0276C10.125 30.1336 10.1459 30.2385 10.1865 30.3363C10.2271 30.4342 10.2865 30.5231 10.3615 30.5979C10.4365 30.6728 10.5255 30.7321 10.6234 30.7725C10.7213 30.8129 10.8263 30.8336 10.9322 30.8334C11.6471 30.8345 12.3323 31.1191 12.8377 31.6247C13.343 32.1304 13.6272 32.8157 13.628 33.5306C13.628 33.6366 13.6489 33.7414 13.6894 33.8393C13.73 33.9372 13.7895 34.026 13.8645 34.1009C13.9394 34.1757 14.0284 34.2351 14.1264 34.2755C14.2243 34.3159 14.3292 34.3366 14.4352 34.3364H45.3178C45.4237 34.3366 45.5287 34.3159 45.6266 34.2755C45.7245 34.2351 45.8135 34.1757 45.8885 34.1009C45.9635 34.026 46.0229 33.9372 46.0635 33.8393C46.1041 33.7414 46.125 33.6366 46.125 33.5306C46.1257 32.8157 46.41 32.1304 46.9153 31.6247C47.4207 31.1191 48.1059 30.8345 48.8208 30.8334C48.9267 30.8336 49.0316 30.8129 49.1296 30.7725C49.2275 30.7321 49.3165 30.6728 49.3915 30.5979C49.4664 30.5231 49.5259 30.4342 49.5665 30.3363C49.6071 30.2385 49.628 30.1336 49.628 30.0276V26.3826C49.6325 26.2739 49.615 26.1654 49.5765 26.0636C49.538 25.9618 49.4794 25.8688 49.404 25.7902C49.3287 25.7117 49.2383 25.6492 49.1381 25.6065C49.038 25.5638 48.9303 25.5418 48.8215 25.5418C48.7126 25.5418 48.6049 25.5638 48.5048 25.6065C48.4047 25.6492 48.3143 25.7117 48.2389 25.7902C48.1636 25.8688 48.1049 25.9618 48.0664 26.0636C48.028 26.1654 48.0105 26.2739 48.015 26.3826V29.2964C47.1667 29.4598 46.3869 29.8736 45.776 30.4845C45.1652 31.0953 44.7514 31.8752 44.588 32.7234H15.1594C14.996 31.8752 14.5821 31.0953 13.9713 30.4845C13.3605 29.8736 12.5806 29.4598 11.7323 29.2964Z" fill="#B11116"/>
<path d="M28.8141 22.3932H30.7547C30.9628 22.3845 31.1594 22.2957 31.3036 22.1454C31.4477 21.9951 31.5282 21.7949 31.5282 21.5867C31.5282 21.3784 31.4477 21.1782 31.3036 21.0279C31.1594 20.8776 30.9628 20.7889 30.7547 20.7802H30.1205V20.2613C30.125 20.1525 30.1075 20.044 30.0691 19.9422C30.0306 19.8404 29.9719 19.7474 29.8966 19.6689C29.8212 19.5903 29.7308 19.5278 29.6307 19.4851C29.5306 19.4424 29.4228 19.4204 29.314 19.4204C29.2052 19.4204 29.0975 19.4424 28.9973 19.4851C28.8972 19.5278 28.8068 19.5903 28.7315 19.6689C28.6561 19.7474 28.5974 19.8404 28.559 19.9422C28.5205 20.044 28.503 20.1525 28.5075 20.2613V20.7999C27.8446 20.8499 27.2279 21.1588 26.7908 21.6598C26.3537 22.1608 26.1313 22.8136 26.1715 23.4772C26.2118 24.1409 26.5115 24.762 27.006 25.2065C27.5005 25.6509 28.1499 25.883 28.8141 25.8525H29.8125C30.0579 25.8525 30.2933 25.95 30.4668 26.1236C30.6404 26.2971 30.7378 26.5324 30.7378 26.7778C30.7378 27.0233 30.6404 27.2586 30.4668 27.4321C30.2933 27.6057 30.0579 27.7032 29.8125 27.7032H27.8747C27.766 27.6986 27.6574 27.7161 27.5556 27.7546C27.4538 27.7931 27.3608 27.8518 27.2823 27.9271C27.2037 28.0024 27.1412 28.0929 27.0985 28.193C27.0559 28.2931 27.0338 28.4008 27.0338 28.5096C27.0338 28.6185 27.0559 28.7262 27.0985 28.8263C27.1412 28.9264 27.2037 29.0169 27.2823 29.0922C27.3608 29.1675 27.4538 29.2262 27.5556 29.2647C27.6574 29.3032 27.766 29.3207 27.8747 29.3161H28.5075V29.835C28.5162 30.0431 28.605 30.2398 28.7553 30.3839C28.9056 30.5281 29.1058 30.6085 29.314 30.6085C29.5223 30.6085 29.7224 30.5281 29.8727 30.3839C30.023 30.2398 30.1118 30.0431 30.1205 29.835V29.2922C30.784 29.2427 31.4014 28.934 31.839 28.4327C32.2766 27.9315 32.4992 27.2781 32.4588 26.614C32.4183 25.9498 32.1179 25.3283 31.6227 24.884C31.1274 24.4396 30.4772 24.2081 29.8125 24.2396H28.8141C28.6898 24.2444 28.5659 24.2241 28.4496 24.1799C28.3334 24.1357 28.2273 24.0685 28.1376 23.9823C28.048 23.8961 27.9767 23.7927 27.928 23.6782C27.8793 23.5638 27.8541 23.4407 27.8541 23.3164C27.8541 23.192 27.8793 23.0689 27.928 22.9545C27.9767 22.8401 28.048 22.7366 28.1376 22.6504C28.2273 22.5642 28.3334 22.497 28.4496 22.4528C28.5659 22.4086 28.6898 22.3883 28.8141 22.3932Z" fill="#B11116"/>
<path d="M20.423 24.4772C20.2739 24.6267 20.1891 24.8286 20.1867 25.0397C20.1866 25.0931 20.1923 25.1464 20.2036 25.1986C20.2135 25.2499 20.229 25.2998 20.25 25.3477C20.2693 25.3973 20.2943 25.4445 20.3245 25.4883C20.353 25.5319 20.386 25.5725 20.423 25.6092C20.4604 25.6468 20.5014 25.6807 20.5453 25.7105C20.5897 25.7393 20.6368 25.7638 20.6859 25.7836C20.7351 25.8039 20.7859 25.8199 20.8378 25.8314C20.8897 25.841 20.9425 25.8457 20.9953 25.8455C21.2088 25.8447 21.4135 25.7598 21.5648 25.6092C21.6023 25.5722 21.6362 25.5317 21.6661 25.4883C21.6942 25.4432 21.7191 25.3962 21.7406 25.3477C21.7592 25.2991 21.7742 25.2493 21.7856 25.1986C21.7965 25.1463 21.8017 25.0931 21.8011 25.0397C21.7999 24.8807 21.7517 24.7256 21.6625 24.594C21.5734 24.4623 21.4473 24.36 21.3001 24.2999C21.1529 24.2397 20.9912 24.2245 20.8354 24.256C20.6796 24.2876 20.5366 24.3645 20.4244 24.4772H20.423Z" fill="#B11116"/>
<path d="M38.0827 25.4954C38.1129 25.5385 38.1468 25.579 38.1839 25.6163C38.2678 25.701 38.3695 25.7658 38.4817 25.8063C38.5938 25.8467 38.7135 25.8617 38.8321 25.8501C38.9507 25.8385 39.0653 25.8007 39.1674 25.7393C39.2696 25.678 39.3568 25.5947 39.4228 25.4954C39.453 25.4516 39.4781 25.4044 39.4973 25.3548C39.5183 25.307 39.5339 25.257 39.5438 25.2057C39.5549 25.1544 39.5606 25.1021 39.5606 25.0496C39.5652 24.9409 39.5477 24.8323 39.5092 24.7305C39.4707 24.6287 39.412 24.5357 39.3367 24.4572C39.2614 24.3786 39.1709 24.3161 39.0708 24.2734C38.9707 24.2308 38.863 24.2087 38.7541 24.2087C38.6453 24.2087 38.5376 24.2308 38.4375 24.2734C38.3374 24.3161 38.2469 24.3786 38.1716 24.4572C38.0963 24.5357 38.0376 24.6287 37.9991 24.7305C37.9606 24.8323 37.9431 24.9409 37.9477 25.0496C37.948 25.102 37.9531 25.1543 37.9631 25.2057C37.9743 25.2566 37.9899 25.3065 38.0095 25.3548C38.03 25.4036 38.0545 25.4506 38.0827 25.4954Z" fill="#B11116"/>
<path d="M58.4311 44.6681C57.6783 44.0764 56.7309 43.7889 55.7762 43.8623C54.8216 43.9358 53.9293 44.3648 53.2758 45.0646L48.1753 50.5785C48.0984 50.6553 48.0377 50.7469 47.997 50.8477C47.9563 50.9485 47.9364 51.0565 47.9384 51.1651C47.9405 51.2738 47.9645 51.381 48.009 51.4802C48.0534 51.5794 48.1175 51.6686 48.1973 51.7424C48.2771 51.8162 48.371 51.8732 48.4733 51.9098C48.5757 51.9465 48.6844 51.9621 48.7929 51.9557C48.9014 51.9493 49.0076 51.9211 49.1049 51.8727C49.2022 51.8242 49.2888 51.7567 49.3594 51.674L54.4598 46.1601C54.836 45.7569 55.3499 45.5097 55.8997 45.4675C56.4496 45.4253 56.9952 45.5912 57.4284 45.9323C57.6557 46.1127 57.8448 46.3366 57.9848 46.5908C58.1247 46.8449 58.2128 47.1244 58.2438 47.4129C58.2748 47.7015 58.2482 47.9933 58.1654 48.2714C58.0826 48.5495 57.9454 48.8084 57.7617 49.0331L48.8827 59.8921C48.2378 60.6829 47.3193 61.2025 46.3092 61.3476L29.122 63.8352C28.249 63.9641 27.4173 64.2922 26.6913 64.794C25.9654 65.2959 25.3646 65.9581 24.9356 66.7293L24.4659 67.5731H8.65547L16.8455 55.4695C18.0174 53.7244 19.6444 52.3332 21.5504 51.4466C23.4563 50.5599 25.5684 50.2116 27.6581 50.4393C29.044 50.5831 30.4089 50.8846 31.7264 51.3379C32.6215 51.6579 33.5645 51.8234 34.515 51.8273H42.7345C43.3646 51.828 43.9687 52.0786 44.4142 52.5242C44.8597 52.9697 45.1104 53.5738 45.1111 54.2038C45.1104 54.8839 44.8399 55.5359 44.359 56.0167C43.8781 56.4976 43.2261 56.7681 42.5461 56.7688H35.0156C33.783 56.7686 32.5891 57.1994 31.6406 57.9867L29.8716 59.4548C29.7133 59.5934 29.6154 59.7883 29.5988 59.998C29.5821 60.2077 29.648 60.4157 29.7823 60.5775C29.9167 60.7394 30.109 60.8424 30.3182 60.8646C30.5274 60.8869 30.737 60.8265 30.9023 60.6965L32.67 59.2284C33.3272 58.6837 34.1537 58.3853 35.0072 58.3846H42.5433C43.6509 58.3831 44.7127 57.9425 45.4959 57.1593C46.2791 56.3761 46.7198 55.3143 46.7213 54.2066C46.7198 53.149 46.299 52.1351 45.5511 51.3873C44.8032 50.6394 43.7894 50.2186 42.7317 50.2171H34.515C33.7479 50.213 32.987 50.0784 32.265 49.8191C30.8313 49.3233 29.3455 48.993 27.8367 48.8348C25.455 48.574 23.0473 48.9699 20.8744 49.9795C18.7015 50.9891 16.8462 52.574 15.5095 54.5624L6.46735 67.9218C6.38357 68.0432 6.33466 68.1853 6.32594 68.3325C6.31721 68.4797 6.349 68.6266 6.41785 68.757C6.4867 68.8875 6.58997 68.9966 6.71646 69.0724C6.84295 69.1483 6.98781 69.1881 7.13532 69.1874H24.9413C25.0855 69.1865 25.2268 69.1468 25.3505 69.0726C25.4742 68.9984 25.5757 68.8924 25.6444 68.7656L26.3475 67.4999C26.656 66.9461 27.0877 66.4705 27.6092 66.1101C28.1308 65.7497 28.7283 65.5141 29.3555 65.4215L46.5469 62.9437C47.9563 62.7411 49.2382 62.0163 50.1384 60.9131L59.0175 50.054C59.3374 49.6641 59.5764 49.2145 59.7206 48.7312C59.8647 48.248 59.9112 47.7409 59.8573 47.2395C59.8034 46.7381 59.6501 46.2525 59.4064 45.811C59.1628 45.3695 58.8336 44.981 58.4381 44.6681H58.4311Z" fill="#B11116"/>
</svg>
