<svg width="55" height="55" viewBox="0 0 55 55" fill="none" xmlns="http://www.w3.org/2000/svg">
<path d="M54.495 18.8909L53.2836 17.6795C52.6143 17.0102 51.5292 17.0102 50.8599 17.6795L41.2573 27.2822V1.73288C41.2573 0.783525 40.4883 0.0145891 39.539 0.0145891H13.7646C13.1812 0.0145891 12.6021 -0.0885085 12.2602 0.253432L0.257056 12.2566C-0.0848845 12.5985 0.0182131 13.1235 0.0182131 13.7609V53.2817C0.0182131 54.231 0.787149 55 1.73651 55H39.539C40.4883 55 41.2573 54.231 41.2573 53.2817V34.5523L54.495 21.3146C55.1643 20.6453 55.1643 19.5602 54.495 18.8909ZM12.0463 2.94342V12.0426H2.94704L12.0463 2.94342ZM39.539 53.2817H1.73651V13.7609H12.9054C13.3797 13.7609 13.7646 13.376 13.7646 12.9018V1.73288H39.539V29.0005L32.2792 36.2603C32.1417 36.1666 31.9853 36.0996 31.8066 36.0996H9.46883C8.99458 36.0996 8.60968 36.4845 8.60968 36.9588C8.60968 37.433 8.99458 37.8179 9.46883 37.8179H30.7224L25.5598 42.9805C25.235 43.0269 24.9627 43.2512 24.8854 43.5897L24.1645 46.7419C24.0554 46.9352 24.0245 47.1766 24.0984 47.4197C24.1233 47.5022 24.1714 47.5718 24.2161 47.6423C24.223 47.6543 24.2273 47.6654 24.2341 47.6766C24.2736 47.735 24.32 47.7831 24.3707 47.8313C24.4188 47.8811 24.467 47.9275 24.5254 47.967C24.5365 47.9739 24.5486 47.979 24.5606 47.9859C24.6319 48.0306 24.7006 48.0778 24.7831 48.1036C25.0263 48.1784 25.2668 48.1466 25.4601 48.0375L28.6123 47.3166C28.9732 47.2342 29.206 46.9335 29.2301 46.5803L39.5398 36.2706L39.539 53.2817ZM27.7257 45.6593L26.1895 46.0107L26.5564 44.405L52.0705 18.8909L53.2819 20.1023L27.7257 45.6593ZM9.46797 20.6341H31.8058C32.28 20.6341 32.6649 20.2492 32.6649 19.775C32.6649 19.3007 32.28 18.9158 31.8058 18.9158H9.46797C8.99372 18.9158 8.60882 19.3007 8.60882 19.775C8.60882 20.2492 8.99372 20.6341 9.46797 20.6341ZM9.46797 29.2256H31.8058C32.28 29.2256 32.6649 28.8407 32.6649 28.3664C32.6649 27.8922 32.28 27.5073 31.8058 27.5073H9.46797C8.99372 27.5073 8.60882 27.8922 8.60882 28.3664C8.60882 28.8407 8.99372 29.2256 9.46797 29.2256Z" fill="#B11116"/>
</svg>
