<svg width="71" height="51" viewBox="0 0 71 51" fill="none" xmlns="http://www.w3.org/2000/svg">
<path d="M13.6857 25.309C10.7548 25.309 8.37046 27.7016 8.37046 30.6407C8.37046 33.5812 10.7548 35.9726 13.6857 35.9726C16.6167 35.9726 19.001 33.58 19.001 30.6407C19.001 27.7015 16.6167 25.309 13.6857 25.309ZM13.6857 33.6024C12.0587 33.6024 10.7346 32.2736 10.7346 30.6419C10.7346 29.009 12.0586 27.6802 13.6857 27.6802C15.314 27.6802 16.638 29.009 16.638 30.6419C16.638 32.2736 15.314 33.6024 13.6857 33.6024ZM56.2268 25.309C53.2958 25.309 50.9116 27.7016 50.9116 30.6407C50.9116 33.5812 53.2959 35.9726 56.2268 35.9726C59.1578 35.9726 61.542 33.58 61.542 30.6407C61.5421 27.7015 59.1578 25.309 56.2268 25.309ZM56.2268 33.6024C54.5998 33.6024 53.2756 32.2736 53.2756 30.6419C53.2756 29.009 54.5997 27.6802 56.2268 27.6802C57.855 27.6802 59.1791 29.009 59.1791 30.6419C59.1791 32.2736 57.855 33.6024 56.2268 33.6024ZM62.5408 23.7151L59.4667 15.7754H11.6588L8.42371 23.3257C6.71855 24.4156 5.57791 26.3182 5.57791 28.4919V37.202C5.57791 39.3554 6.69372 41.2441 8.37162 42.3397V46.1202C8.37162 48.7767 10.5263 50.9386 13.1744 50.9386H15.6937C18.3419 50.9386 20.4966 48.7778 20.4966 46.1202V43.3372H50.9127V46.1202C50.9127 48.7767 53.0674 50.9386 55.7155 50.9386H58.2347C60.8829 50.9386 63.0376 48.7778 63.0376 46.1202V41.657H62.9323C64.1168 40.5376 64.867 38.9602 64.867 37.203V28.493C64.8671 26.5514 63.9465 24.8391 62.5408 23.7151ZM13.216 18.1454H57.8491L59.5094 22.4336C59.2584 22.4017 59.0112 22.3567 58.752 22.3567H11.6932C11.5926 22.3567 11.4979 22.3815 11.3985 22.3863L13.216 18.1454ZM18.1325 46.1203C18.1325 47.4693 17.0379 48.5674 15.6938 48.5674H13.1746C11.8292 48.5674 10.7358 47.4693 10.7358 46.1203V43.2403C11.0506 43.2901 11.3666 43.3373 11.6944 43.3373H18.1337V46.1203H18.1325ZM60.6736 46.1203C60.6736 47.4693 59.579 48.5674 58.2348 48.5674H55.7156C54.3702 48.5674 53.2769 47.4693 53.2769 46.1203V43.3373H58.7531C59.4286 43.3373 60.0665 43.2001 60.6746 42.9966V46.1203H60.6736ZM62.503 37.2021C62.503 39.2775 60.8203 40.966 58.7508 40.966H11.6932C9.62479 40.966 7.94098 39.2774 7.94098 37.2021V28.492C7.94098 26.4164 9.62479 24.728 11.6932 24.728H58.7519C60.8203 24.728 62.5041 26.4164 62.5041 28.492V37.2021H62.503ZM22.0279 35.9738H49.2822V26.1988H22.0279V35.9738ZM24.3908 28.57H46.9192V33.6024H24.3908V28.57ZM15.786 4.1047C15.8866 3.15095 16.6818 2.43271 17.6367 2.43271H54.1372C55.0919 2.43271 55.8884 3.15095 55.9877 4.10354L56.9794 13.5272L59.3306 13.2787L58.3389 3.85504C58.1118 1.69197 56.305 0.0615234 54.1372 0.0615234H17.6367C15.4688 0.0615234 13.6632 1.69209 13.4349 3.85504L12.4433 13.2787L14.7946 13.5272L15.786 4.1047ZM68.2608 10.0909H63.3124C61.8013 10.0909 60.5731 11.3238 60.5731 12.8384V14.8902C60.5731 16.4059 61.8026 17.6389 63.3124 17.6389H68.2608C69.7718 17.6389 71 16.4059 71 14.8902V12.8384C71 11.3238 69.7718 10.0909 68.2608 10.0909ZM68.6358 14.8902C68.6358 15.0984 68.4678 15.2677 68.2608 15.2677H63.3124C63.104 15.2677 62.9361 15.0986 62.9361 14.8902V12.8384C62.9361 12.6301 63.104 12.4622 63.3124 12.4622H68.2608C68.4678 12.4622 68.6358 12.6313 68.6358 12.8384V14.8902ZM10.427 14.8902V12.8384C10.427 11.3238 9.19879 10.0909 7.68772 10.0909H2.7393C1.22939 10.0909 0 11.3238 0 12.8384V14.8902C0 16.4059 1.22939 17.6389 2.7393 17.6389H7.68772C9.19879 17.6389 10.427 16.4059 10.427 14.8902ZM2.36295 14.8902V12.8384C2.36295 12.6301 2.53106 12.4622 2.7393 12.4622H7.68772C7.89481 12.4622 8.06407 12.6313 8.06407 12.8384V14.8902C8.06407 15.0984 7.89597 15.2677 7.68772 15.2677H2.7393C2.53222 15.2677 2.36295 15.0984 2.36295 14.8902Z" fill="#B11116"/>
</svg>
